
<svg
   width="96"
   height="96"
   viewBox="0 0 96 96">
  <path
     d="M 47.881552,80.617254 C 19.976473,80.617254 6.8615641,50.989046 6.2871891,49.744566 6.0975952,49.289374 6,48.801631 6,48.308626 6,47.81562 6.0975963,47.32788 6.2871891,46.872687 6.8615641,45.628206 19.976473,16 47.881552,16 c 27.905081,0 41.01999,29.628206 41.594366,30.872687 0.189543,0.455193 0.287188,0.942933 0.287188,1.435939 0,0.493005 -0.09764,0.980748 -0.287188,1.43594 -0.574376,1.24448 -13.689285,30.872688 -41.594366,30.872688 z M 13.562611,48.308626 c 2.824014,5.504434 14.35939,25.128933 34.318941,25.128933 19.959552,0 31.494928,-19.624499 34.318941,-25.128933 C 79.37648,42.804193 67.841104,23.179694 47.881552,23.179694 c -19.959551,0 -31.494927,19.624499 -34.318941,25.128932 z"
     fill="#000000"
     id="path22"
     style="stroke-width:0.286;fill:#000000;fill-opacity:1;stroke:#d9df6b;stroke-opacity:1;stroke-dasharray:none" />
  <path
     d="m 47.431016,63.637982 c 3.178199,0 6.284707,-0.942385 8.927438,-2.707996 2.642534,-1.765612 4.702134,-4.275342 5.918384,-7.211765 1.216201,-2.935929 1.534416,-6.167033 0.9144,-9.283923 -0.620016,-3.117385 -2.150427,-5.980633 -4.397713,-8.22782 -2.247187,-2.247286 -5.110434,-3.777697 -8.227819,-4.397713 -3.116891,-0.620016 -6.347995,-0.3018 -9.283924,0.9144 -2.936423,1.21625 -5.446153,3.27585 -7.211764,5.918384 -1.765612,2.642731 -2.707997,5.749239 -2.707997,8.927439 0.01286,4.257542 1.710236,8.337583 4.720824,11.348171 3.010587,3.010588 7.090629,4.707968 11.348171,4.720823 z m 0,-24.72153 c 1.711224,0 3.384377,0.507286 4.806854,1.458076 1.422971,0.95079 2.531979,2.302069 3.1871,3.883258 0.654626,1.581189 0.826193,3.320596 0.492452,4.999188 -0.334235,1.678592 -1.157956,3.220226 -2.368322,4.430098 -1.209872,1.210366 -2.751506,2.034582 -4.430098,2.368323 -1.678592,0.33374 -3.417999,0.162173 -4.999188,-0.492453 -1.581189,-0.655121 -2.932468,-1.764129 -3.883258,-3.1871 -0.95079,-1.422477 -1.458076,-3.09563 -1.458076,-4.806854 0.01286,-2.290697 0.928541,-4.483991 2.54879,-6.103746 1.619755,-1.620249 3.813049,-2.535934 6.103746,-2.54879 z"
     fill="#000000"
     id="path24"
     style="stroke-width:0.244;stroke:#d9df6b;stroke-opacity:1;stroke-dasharray:none" />
</svg>
