<?xml version="1.0" encoding="UTF-8" standalone="no"?>
<!-- Uploaded to: SVG Repo, www.svgrepo.com, Generator: SVG Repo Mixer Tools -->

<svg
   fill="#fff"
   width="96"
   height="96"
   viewBox="0 0 96 96"
   xmlns="http://www.w3.org/2000/svg">
   
  <path
     d="M 87.88854,64.051598 V 83.15892 c 0,1.501294 -3.228327,4.729617 -4.72962,4.729617 H 62.051598 V 64.051598 Z m -29.29618,0 V 87.888537 H 36.755417 V 64.051598 Z m -25.296181,0 V 87.888537 H 12.188854 c -1.50129,0 -4.7296185,-3.228323 -4.7296185,-4.729617 V 64.051598 Z M 87.88854,36.755417 V 60.59236 H 62.051598 V 36.755417 Z m -29.29618,0 V 60.59236 H 36.755417 V 36.755417 Z m -25.296181,0 V 60.59236 H 7.4592355 V 36.755417 Z M 83.15892,7.4592355 c 1.501293,0 4.72962,3.2283285 4.72962,4.7296185 V 33.29618 H 62.051598 V 7.4592355 Z m -24.56656,0 V 33.29618 H 36.755417 V 7.4592355 Z m -25.296181,0 V 33.29618 H 7.4592355 V 12.188854 c 0,-1.50129 3.2283285,-4.7296185 4.7296185,-4.7296185 z M 83.15892,4 H 12.188854 C 7.6740656,4 4,7.6740658 4,12.188854 V 83.15892 c 0,4.514791 3.6740656,8.188856 8.188854,8.188856 H 83.15892 c 4.514796,0 8.188854,-3.674065 8.188854,-8.188856 V 12.188854 C 91.347774,7.6740658 87.673716,4 83.15892,4 Z"
     fill-rule="evenodd"
     id="path5458"
     style="stroke-width:0.0454935"
     />
</svg>
